<svg width="368" height="232" viewBox="0 0 368 232" fill="none" xmlns="http://www.w3.org/2000/svg">
<g clip-path="url(#clip0_888_8075)">
<rect width="368" height="232" rx="12" fill="white"/>
<path d="M-161.19 504.941V-40.9414H44.772C86.9657 -40.9414 122.365 -33.6559 150.97 -19.0848C179.755 -4.51383 201.478 15.9212 216.138 42.2204C230.978 68.3417 238.398 98.8166 238.398 133.645C238.398 168.651 230.89 199.037 215.871 224.803C201.031 250.391 179.13 270.205 150.166 284.243C121.203 298.103 85.6246 305.034 43.431 305.034H-103.263V222.937H30.0222C54.6945 222.937 74.8974 219.56 90.6307 212.809C106.364 205.878 117.985 195.839 125.494 182.689C133.182 169.362 137.026 153.014 137.026 133.645C137.026 114.276 133.182 97.7505 125.494 84.0677C117.806 70.2076 106.096 59.7234 90.3625 52.6156C74.6292 45.33 54.3369 41.6873 29.4856 41.6873H-61.6954V504.941H-161.19ZM122.544 257.588L258.512 504.941H147.485L13.9312 257.588H122.544Z" fill="white" fill-opacity="0.12"/>
<path d="M-172 505V-54H39.5065C82.837 -54 119.189 -46.5394 148.565 -31.6182C178.124 -16.697 200.433 4.22916 215.487 31.1602C230.725 57.9091 238.345 89.1164 238.345 124.782C238.345 160.629 230.634 191.745 215.212 218.13C199.973 244.333 177.482 264.623 147.739 278.999C117.995 293.192 81.4597 300.287 38.1292 300.287H-112.514V216.219H24.3594C49.6967 216.219 70.4429 212.762 86.5997 205.848C102.757 198.75 114.691 188.469 122.402 175.005C130.296 161.356 134.243 144.616 134.243 124.782C134.243 104.947 130.296 88.0247 122.402 74.0132C114.507 59.8199 102.482 49.0839 86.3252 41.8052C70.1684 34.3445 49.3291 30.6142 23.8088 30.6142H-69.8268V505H-172ZM119.372 251.702L259 505H144.984L7.83661 251.702H119.372Z" fill="url(#paint0_linear_888_8075)"/>
</g>
<defs>
<linearGradient id="paint0_linear_888_8075" x1="242.797" y1="173.191" x2="-55" y2="173.191" gradientUnits="userSpaceOnUse">
<stop stop-color="#DAE1E6"/>
<stop offset="0.691065" stop-color="white"/>
<stop offset="1" stop-color="white"/>
</linearGradient>
<clipPath id="clip0_888_8075">
<rect width="368" height="232" rx="12" fill="white"/>
</clipPath>
</defs>
</svg>
